<svg xmlns="http://www.w3.org/2000/svg" xmlns:xlink="http://www.w3.org/1999/xlink" version="1.1" id="Layer_1" x="0px" y="0px" width="100%" viewBox="0 0 1024 544" enable-background="new 0 0 1024 544" xml:space="preserve">
<path fill="#34539c" opacity="1.000000" stroke="none" d=" M529.718994,353.847656   C518.941589,360.648315 509.046021,359.474487 497.961700,354.225586   C462.294617,337.335724 433.526672,313.657654 417.300446,276.773376   C410.451508,261.204865 406.854004,244.812866 406.738892,227.807251   C406.547180,199.485886 406.770935,171.161682 406.573273,142.840408   C406.543427,138.567337 408.129639,136.686584 411.927063,135.232162   C444.421539,122.786674 476.859589,110.193573 509.285248,97.569435   C512.272278,96.406532 514.944092,96.398712 517.947144,97.571312   C550.669739,110.348320 583.414124,123.070099 616.204407,135.671982   C619.331055,136.873627 620.488342,138.385910 620.466187,141.834091   C620.296204,168.323059 620.184082,194.814697 620.375977,221.303177   C620.721863,269.050476 600.641663,306.313812 562.809631,334.606354   C552.626526,342.221680 541.596985,348.391296 529.718994,353.847656  M601.140320,249.701874   C601.680847,246.593414 602.229553,243.486359 602.759705,240.376144   C603.370605,236.792206 602.089233,235.279678 598.221802,235.287521   C554.731018,235.375610 511.239929,235.374985 467.749237,235.272110   C463.699066,235.262543 462.785706,237.082321 463.402405,240.493362   C464.564087,246.918747 466.369324,253.185928 469.561401,258.884186   C479.879700,277.303589 495.064392,287.977142 516.797546,287.727173   C531.003052,287.563782 542.913879,281.878967 553.054932,272.173035   C555.360107,269.966797 557.545898,267.650085 561.210938,268.212585   C568.379395,269.312744 571.475464,276.906891 566.513794,282.401398   C549.197632,301.576813 527.302124,308.536224 502.330841,303.563080   C472.818298,297.685516 455.907837,278.038940 447.728119,249.896881   C446.361969,245.196609 448.116791,238.390869 443.862946,236.145157   C439.782257,233.990829 433.793060,235.451035 428.642517,235.325287   C428.309540,235.317139 427.975159,235.347977 427.642975,235.330826   C424.734497,235.180573 423.397369,236.022018 423.984802,239.412430   C425.065033,245.646927 426.049530,251.886002 428.001831,257.921112   C441.601074,299.960907 471.819763,325.545837 511.249817,342.033417   C513.505798,342.976746 515.445496,342.441986 517.469910,341.515015   C528.997375,336.237030 540.294006,330.551605 550.641174,323.138336   C576.066650,304.922211 593.949463,281.494232 601.140320,249.701874  M604.652771,186.500336   C604.629944,175.341217 604.553223,164.181778 604.620178,153.023193   C604.638062,150.045929 603.907410,148.121185 600.792969,146.933792   C572.951965,136.319168 545.160889,125.573441 517.378418,114.806206   C514.731018,113.780197 512.335999,113.795540 509.679413,114.827774   C482.220245,125.497223 454.744629,136.124939 427.228302,146.645798   C424.069122,147.853699 422.944092,149.692841 422.955536,152.990906   C423.027222,173.643265 423.004456,194.296478 422.869080,214.948456   C422.849426,217.948059 423.722168,219.227875 426.804016,219.104584   C430.628662,218.951584 434.464142,219.076019 438.294891,219.066437   C445.657623,219.048019 445.450348,219.005844 446.751678,211.908569   C454.012543,172.307755 491.558990,143.838654 533.156189,155.902145   C562.014648,164.271317 577.646790,184.955826 582.124023,214.242386   C582.735046,218.239182 584.244934,219.270737 587.836731,219.133362   C591.824463,218.980835 595.854126,218.905609 599.813171,219.310059   C603.763855,219.713669 604.753235,218.045425 604.698975,214.481689   C604.561951,205.489761 604.654236,196.494354 604.652771,186.500336  M541.995667,178.491226   C512.516846,160.254578 475.464081,174.660965 465.506104,208.230927   C462.275696,219.121185 462.275757,219.096268 473.430969,219.091873   C502.059174,219.080582 530.687378,219.107971 559.315552,219.083969   C564.599792,219.079544 565.585205,217.916260 564.496155,212.812271   C561.495728,198.750549 554.746155,187.070877 541.995667,178.491226  z"/>
<path fill="#34539c" opacity="1.000000" stroke="none" d=" M553.717773,412.000000   C553.716492,402.518585 553.899963,393.532104 553.650513,384.557617   C553.489258,378.755798 557.401917,379.964661 560.750610,379.741821   C564.335266,379.503296 565.901184,380.739471 565.596741,384.613953   C565.289246,388.528381 564.769348,392.563812 566.469482,396.776855   C569.139282,395.816956 571.354675,393.966217 574.208130,393.687439   C583.888123,392.741852 590.592957,397.192078 593.323120,406.627716   C594.880981,412.011780 594.780396,417.478149 593.654358,422.904755   C591.067383,435.371735 577.064514,442.189728 566.465759,433.110046   C564.492676,435.959656 558.932251,437.490814 555.693787,436.133423   C553.466858,435.199982 553.765259,433.232239 553.750183,431.460602   C553.696350,425.140747 553.722839,418.820251 553.717773,412.000000  M569.628662,424.945618   C575.270386,427.495605 579.078979,426.417206 580.996155,421.432220   C582.599182,417.263855 582.524231,412.935974 580.987610,408.734711   C579.777100,405.425140 577.151123,403.550934 573.737305,403.577698   C570.485779,403.603149 568.160645,405.679962 566.925293,408.659088   C564.582886,414.307861 564.849670,419.679077 569.628662,424.945618  z"/>
<path fill="#34539c" opacity="1.000000" stroke="none" d=" M312.202271,401.382019   C318.655548,393.212891 326.929047,392.239166 335.850464,394.646912   C344.384033,396.950012 347.778625,403.538300 348.758392,411.762512   C349.472931,417.760468 348.491486,418.930969 342.540833,418.947052   C335.430206,418.966309 328.319519,418.951599 320.978882,418.951599   C320.960175,422.893433 322.556732,425.302826 325.729401,426.775146   C328.894165,428.243744 332.317719,428.289001 334.580719,425.804749   C338.792267,421.181427 343.203461,423.121979 348.417267,424.336975   C346.783356,430.625427 342.956879,434.406586 337.203491,436.090881   C328.720886,438.574158 320.443848,438.004822 314.000671,431.371765   C307.318329,424.492523 307.040100,415.908508 309.527863,407.116089   C310.063019,405.224670 311.150970,403.489624 312.202271,401.382019  M336.265778,407.989563   C334.622314,403.892761 331.287170,402.841980 327.369324,403.438751   C323.986786,403.953979 321.788025,405.924866 321.461060,410.368958   C326.657196,409.897705 331.745850,412.819733 336.265778,407.989563  z"/>
<path fill="#34539c" opacity="1.000000" stroke="none" d=" M520.928955,406.509796   C519.984802,406.969757 519.333435,407.321014 518.713074,407.272736   C516.029907,407.063965 512.330750,408.472687 511.153442,405.254974   C510.033966,402.195374 512.566406,399.556488 514.977478,397.717651   C522.378113,392.073334 530.581909,392.387268 538.610962,395.720276   C545.523010,398.589569 546.418884,405.025940 546.279419,411.655579   C546.230469,413.982849 546.274231,416.312012 546.273682,418.640320   C546.272827,422.132782 546.463867,425.639832 546.202209,429.112732   C546.019104,431.542450 547.795044,435.184113 544.353882,436.074432   C541.021851,436.936554 537.084106,437.495972 534.030151,434.076324   C528.996094,436.949768 523.688660,438.334442 517.894531,436.398529   C512.282959,434.523621 509.125732,430.699951 508.832764,425.171082   C508.535645,419.565002 511.509430,414.977203 516.981750,412.726135   C520.240051,411.385864 523.660339,410.887573 527.174805,410.589569   C529.925720,410.356262 534.215881,410.809631 533.505737,406.387329   C532.844910,402.272034 528.847046,402.981140 525.701538,403.290863   C523.751099,403.482910 522.402039,404.747681 520.928955,406.509796  M534.389526,421.949585   C534.559631,420.662811 535.024963,419.341980 533.899353,418.076782   C530.458313,418.091675 527.023682,418.432495 523.872192,420.076233   C521.951111,421.078247 520.882324,422.702087 521.244446,424.972137   C521.646606,427.493347 523.716675,428.091949 525.693115,428.150391   C529.670349,428.267975 532.803955,426.729279 534.389526,421.949585  z"/>
<path fill="#34539c" opacity="1.000000" stroke="none" d=" M380.788147,399.197205   C380.348145,392.629272 384.799988,394.020020 388.267151,393.762146   C392.458679,393.450409 393.233459,395.786926 393.196747,399.337372   C393.095215,409.150482 393.306610,418.967560 393.140564,428.778778   C393.097534,431.321442 394.744751,435.224701 390.892975,436.006866   C387.276550,436.741241 382.865631,437.861145 380.398438,433.102448   C378.793671,434.025818 377.415405,434.953522 375.929382,435.651947   C366.370880,440.144562 355.588715,434.414612 354.873749,423.950134   C354.274170,415.174805 354.670898,406.327148 354.735840,397.512329   C354.772064,392.594574 358.654816,394.113708 361.356659,393.823059   C364.578735,393.476410 366.960205,394.222382 366.913849,398.212311   C366.840454,404.532410 366.838226,410.855042 366.927948,417.174866   C367.015289,423.328644 368.932953,425.828125 373.371399,425.907715   C377.889709,425.988678 380.582306,422.903290 380.716675,417.139038   C380.852356,411.319855 380.770111,405.495575 380.788147,399.197205  z"/>
<path fill="#34539c" opacity="1.000000" stroke="none" d=" M663.744507,434.445374   C655.394226,426.302521 657.812317,415.917389 668.489319,412.492157   C671.991516,411.368622 675.579773,410.823151 679.253967,410.560608   C681.581482,410.394287 684.402161,409.779541 684.148621,406.767761   C683.922668,404.084442 681.386414,403.319672 678.884155,403.159424   C676.285950,402.993103 673.863831,403.363037 672.103271,405.511353   C670.931458,406.941132 669.440247,407.447662 667.685242,407.284821   C665.444702,407.076935 662.456970,408.089233 661.317017,405.647308   C660.162415,403.174103 662.140869,400.884979 663.770935,399.017853   C668.499329,393.602020 679.364563,391.880676 687.581604,395.091461   C694.858032,397.934662 696.442871,403.864990 696.327942,410.844971   C696.223938,417.166199 696.403870,423.492798 696.252869,429.812134   C696.201599,431.955627 697.460388,435.265442 694.515808,435.880585   C691.075012,436.599396 686.929688,437.904816 684.218323,433.695129   C677.686951,438.003052 670.979858,438.716431 663.744507,434.445374  M684.153748,422.666046   C684.607483,421.248901 685.057922,419.831787 684.064331,418.282288   C680.417114,417.909760 676.934937,418.768158 673.554932,420.124359   C671.724243,420.858948 670.466797,422.255127 670.619873,424.289093   C670.792358,426.580994 672.475342,427.843567 674.570129,428.139038   C678.719238,428.724213 682.076294,427.465302 684.153748,422.666046  z"/>
<path fill="#34539c" opacity="1.000000" stroke="none" d=" M455.876007,435.533325   C444.097351,429.087738 440.463593,410.793732 448.619904,400.667755   C453.905212,394.106140 463.438599,391.655945 472.291992,394.583710   C479.916199,397.104950 484.840149,403.815338 485.318085,412.335663   C486.400391,431.630707 474.890015,440.876862 455.876007,435.533325  M463.166443,403.658752   C456.041107,407.258850 453.936493,418.894104 459.431641,424.649933   C462.094025,427.438660 465.361603,427.543091 468.593353,425.912964   C472.213715,424.086853 474.166443,417.888214 473.060211,412.604065   C471.648773,405.862152 469.835754,404.059692 463.166443,403.658752  z"/>
<path fill="#34539c" opacity="1.000000" stroke="none" d=" M412.377258,424.003296   C412.376465,426.492950 412.194122,428.509094 412.411377,430.481262   C412.914154,435.045197 411.072601,436.521606 406.478729,436.494171   C401.928772,436.466980 400.401550,435.088196 400.553040,430.474152   C400.869446,420.836426 400.530457,411.178741 400.715057,401.534119   C400.763916,398.981445 399.042938,395.048431 402.811218,394.235199   C406.362610,393.468750 410.936432,391.802826 413.040283,397.128540   C415.944855,395.775757 418.194580,394.023712 421.142242,393.712158   C431.241974,392.644775 437.134033,396.928894 438.480560,407.025269   C439.626526,415.617798 438.899323,424.299133 438.858337,432.936462   C438.835114,437.832092 434.735474,436.086700 432.072937,436.329346   C429.261139,436.585571 426.661896,436.390015 426.729889,432.393738   C426.831726,426.407166 426.762207,420.417084 426.710846,414.428955   C426.696686,412.774170 426.769226,411.038086 426.310059,409.484680   C425.394379,406.386963 423.450165,404.274841 419.886719,404.231049   C416.407166,404.188293 414.303406,405.884918 413.251862,409.136353   C411.723846,413.860840 412.641510,418.717865 412.377258,424.003296  z"/>
<path fill="#34539c" opacity="1.000000" stroke="none" d=" M615.203064,419.927246   C611.959900,418.946106 608.942139,418.415588 606.277283,417.145081   C598.388428,413.384064 597.251038,402.784637 603.979675,397.263031   C610.326660,392.054657 624.118469,392.285736 630.215027,397.695923   C632.018860,399.296722 633.099854,401.346344 633.806274,403.594666   C634.499329,405.800140 633.809204,407.267792 631.309692,407.262085   C628.087952,407.254730 624.651001,408.209961 622.258362,404.715240   C621.211914,403.186890 619.158997,402.672821 617.340027,402.573669   C614.923157,402.441956 612.270447,403.031525 611.703003,405.660858   C611.099487,408.457855 613.766663,409.091309 615.837097,409.648285   C619.369812,410.598663 623.000366,411.211090 626.491089,412.286316   C632.353699,414.092194 635.171997,417.653534 635.342224,422.959747   C635.542297,429.197998 633.200317,433.132050 627.326782,435.369171   C620.040405,438.144409 612.673889,438.326355 605.567505,434.655762   C604.130676,433.913605 602.737000,432.784241 601.773865,431.496490   C600.137268,429.308136 597.826843,426.946716 599.624023,423.955139   C600.778259,422.033691 608.568420,422.550140 610.163086,424.713287   C612.543030,427.941742 615.694397,428.024567 619.097107,427.722229   C621.061035,427.547729 622.818298,426.752655 623.237244,424.719086   C623.735535,422.300354 621.672180,421.687561 619.940247,421.110352   C618.528015,420.639648 617.042725,420.388245 615.203064,419.927246  z"/>
<path fill="#34539c" opacity="1.000000" stroke="none" d=" M503.257996,427.929871   C503.205811,436.446198 503.180359,436.171936 496.899506,436.444244   C492.072632,436.653503 490.944672,434.492920 490.982971,430.215881   C491.116943,415.263733 491.196442,400.306885 490.939301,385.357941   C490.854065,380.403748 493.071899,379.672180 497.283386,379.644379   C501.698486,379.615295 503.463806,380.848541 503.371613,385.572998   C503.099335,399.524384 503.265533,413.484375 503.257996,427.929871  z"/>
<path fill="#34539c" opacity="1.000000" stroke="none" d=" M715.214233,432.749329   C713.662659,438.821930 709.154297,435.965729 706.033630,436.104919   C702.416748,436.266174 703.553284,432.962891 703.540894,430.818085   C703.479248,420.173920 703.632629,409.525299 703.359985,398.887268   C703.266357,395.232330 704.221130,393.576691 708.012756,393.804932   C711.526855,394.016418 715.533081,392.712158 715.362793,398.841705   C715.053345,409.978790 715.253052,421.130035 715.214233,432.749329  z"/>
<path fill="#34539c" opacity="1.000000" stroke="none" d=" M712.065308,389.100372   C708.543152,389.851624 705.740540,389.434479 703.952515,386.366638   C702.778687,384.352722 702.617615,382.293396 704.013367,380.294586   C705.563843,378.074158 707.700989,376.966675 710.405762,377.348053   C713.127014,377.731781 714.870972,379.407227 715.670105,382.004486   C716.676941,385.276794 715.065186,387.382599 712.065308,389.100372  z"/>
<path fill="#34539c" opacity="1.000000" stroke="none" d=" M643.187988,425.985168   C648.966553,423.826965 653.183472,425.999359 653.226868,430.781799   C653.254333,433.803680 651.653564,435.784576 648.916565,436.766937   C646.285461,437.711273 643.953979,436.935394 642.330688,434.715881   C640.211182,431.817871 640.250916,428.901550 643.187988,425.985168  z"/>
</svg>