<svg xmlns="http://www.w3.org/2000/svg" xmlns:xlink="http://www.w3.org/1999/xlink" version="1.1" id="Layer_1" x="0px" y="0px" width="100%" viewBox="0 0 1024 544" enable-background="new 0 0 1024 544" xml:space="preserve">
<path fill="#34539c" opacity="1.000000" stroke="none" d=" M529.718994,353.847656   C518.941589,360.648315 509.046021,359.474487 497.961700,354.225586   C462.294617,337.335724 433.526672,313.657654 417.300446,276.773376   C410.451508,261.204865 406.854004,244.812866 406.738892,227.807251   C406.547180,199.485886 406.770935,171.161682 406.573273,142.840408   C406.543427,138.567337 408.129639,136.686584 411.927063,135.232162   C444.421539,122.786674 476.859589,110.193573 509.285248,97.569435   C512.272278,96.406532 514.944092,96.398712 517.947144,97.571312   C550.669739,110.348320 583.414124,123.070099 616.204407,135.671982   C619.331055,136.873627 620.488342,138.385910 620.466187,141.834091   C620.296204,168.323059 620.184082,194.814697 620.375977,221.303177   C620.721863,269.050476 600.641663,306.313812 562.809631,334.606354   C552.626526,342.221680 541.596985,348.391296 529.718994,353.847656  M601.140320,249.701874   C601.680847,246.593414 602.229553,243.486359 602.759705,240.376144   C603.370605,236.792206 602.089233,235.279678 598.221802,235.287521   C554.731018,235.375610 511.239929,235.374985 467.749237,235.272110   C463.699066,235.262543 462.785706,237.082321 463.402405,240.493362   C464.564087,246.918747 466.369324,253.185928 469.561401,258.884186   C479.879700,277.303589 495.064392,287.977142 516.797546,287.727173   C531.003052,287.563782 542.913879,281.878967 553.054932,272.173035   C555.360107,269.966797 557.545898,267.650085 561.210938,268.212585   C568.379395,269.312744 571.475464,276.906891 566.513794,282.401398   C549.197632,301.576813 527.302124,308.536224 502.330841,303.563080   C472.818298,297.685516 455.907837,278.038940 447.728119,249.896881   C446.361969,245.196609 448.116791,238.390869 443.862946,236.145157   C439.782257,233.990829 433.793060,235.451035 428.642517,235.325287   C428.309540,235.317139 427.975159,235.347977 427.642975,235.330826   C424.734497,235.180573 423.397369,236.022018 423.984802,239.412430   C425.065033,245.646927 426.049530,251.886002 428.001831,257.921112   C441.601074,299.960907 471.819763,325.545837 511.249817,342.033417   C513.505798,342.976746 515.445496,342.441986 517.469910,341.515015   C528.997375,336.237030 540.294006,330.551605 550.641174,323.138336   C576.066650,304.922211 593.949463,281.494232 601.140320,249.701874  M604.652771,186.500336   C604.629944,175.341217 604.553223,164.181778 604.620178,153.023193   C604.638062,150.045929 603.907410,148.121185 600.792969,146.933792   C572.951965,136.319168 545.160889,125.573441 517.378418,114.806206   C514.731018,113.780197 512.335999,113.795540 509.679413,114.827774   C482.220245,125.497223 454.744629,136.124939 427.228302,146.645798   C424.069122,147.853699 422.944092,149.692841 422.955536,152.990906   C423.027222,173.643265 423.004456,194.296478 422.869080,214.948456   C422.849426,217.948059 423.722168,219.227875 426.804016,219.104584   C430.628662,218.951584 434.464142,219.076019 438.294891,219.066437   C445.657623,219.048019 445.450348,219.005844 446.751678,211.908569   C454.012543,172.307755 491.558990,143.838654 533.156189,155.902145   C562.014648,164.271317 577.646790,184.955826 582.124023,214.242386   C582.735046,218.239182 584.244934,219.270737 587.836731,219.133362   C591.824463,218.980835 595.854126,218.905609 599.813171,219.310059   C603.763855,219.713669 604.753235,218.045425 604.698975,214.481689   C604.561951,205.489761 604.654236,196.494354 604.652771,186.500336  M541.995667,178.491226   C512.516846,160.254578 475.464081,174.660965 465.506104,208.230927   C462.275696,219.121185 462.275757,219.096268 473.430969,219.091873   C502.059174,219.080582 530.687378,219.107971 559.315552,219.083969   C564.599792,219.079544 565.585205,217.916260 564.496155,212.812271   C561.495728,198.750549 554.746155,187.070877 541.995667,178.491226  z"/>
</svg>